 <svg  version="1.0" xmlns="http://www.w3.org/2000/svg"  width="300.000000pt" height="300.000000pt" viewBox="0 0 300.000000 300.000000"  preserveAspectRatio="xMidYMid meet">  <g transform="translate(0.000000,300.000000) scale(0.100000,-0.100000)" fill="#d4afaf" stroke="none"> <path d="M1202 2455 c-72 -26 -112 -58 -112 -90 0 -50 35 -38 60 21 17 38 24 44 74 60 31 10 56 21 56 26 0 11 -7 10 -78 -17z"/> <path d="M1720 2473 c0 -5 26 -17 57 -28 47 -17 58 -25 67 -52 15 -45 42 -71 58 -55 8 8 9 20 2 39 -6 21 -26 36 -74 60 -75 36 -110 48 -110 36z"/> <path d="M1268 2438 c-54 -14 -47 -26 7 -14 25 6 45 14 45 18 0 9 -3 9 -52 -4z"/> <path d="M1675 2442 c6 -6 28 -13 50 -17 49 -8 28 9 -25 20 -24 5 -32 4 -25 -3z"/> <path d="M1318 2404 c-4 -3 -32 -7 -63 -9 -58 -3 -94 -23 -81 -44 11 -18 43 -13 82 14 20 14 47 25 60 25 12 0 26 5 29 10 6 10 -17 14 -27 4z"/> <path d="M1640 2406 c0 -3 19 -10 42 -17 23 -6 53 -19 66 -30 26 -20 67 -25 76 -10 12 19 -22 44 -65 46 -24 1 -61 5 -81 10 -21 4 -38 5 -38 1z"/> <path d="M1025 2359 c-30 -36 -29 -63 1 -67 17 -2 24 5 33 29 13 39 14 69 2 69 -5 0 -21 -14 -36 -31z"/> <path d="M1930 2359 c0 -41 16 -69 40 -69 27 0 26 39 -1 74 -27 34 -39 33 -39 -5z"/> <path d="M1298 2358 c-21 -6 -38 -14 -38 -18 0 -4 18 -3 40 2 22 6 40 14 40 19 0 5 -1 9 -2 8 -2 -1 -20 -6 -40 -11z"/> <path d="M1660 2360 c0 -5 9 -11 20 -14 11 -3 29 -9 40 -12 11 -3 20 -1 20 4 0 5 -18 14 -40 20 -22 5 -40 6 -40 2z"/> <path d="M947 2313 c-25 -28 -32 -72 -13 -79 26 -10 46 15 46 57 0 43 -9 48 -33 22z"/> <path d="M2016 2306 c-9 -35 9 -76 34 -76 25 0 27 39 4 75 -20 31 -30 31 -38 1z"/> <path d="M1120 2307 c0 -21 22 -37 50 -37 33 0 159 42 142 48 -7 2 -32 -3 -56 -11 -38 -13 -47 -13 -63 -1 -23 17 -73 18 -73 1z"/> <path d="M1686 2312 c5 -5 37 -17 72 -27 69 -20 114 -14 120 18 4 22 -44 24 -74 3 -18 -13 -26 -13 -60 -1 -44 16 -73 19 -58 7z"/> <path d="M1044 2265 c-9 -24 5 -35 46 -35 47 0 58 13 28 34 -28 20 -67 21 -74 1z"/> <path d="M1876 2265 c-24 -19 -12 -35 28 -35 36 0 57 15 49 36 -7 18 -53 17 -77 -1z"/> <path d="M865 2237 c-20 -38 -17 -70 7 -75 24 -5 40 32 32 73 -8 44 -16 44 -39 2z"/> <path d="M2096 2254 c-10 -26 -7 -69 6 -82 33 -33 58 9 34 57 -20 37 -32 45 -40 25z"/> <path d="M1420 2230 c-199 -21 -390 -151 -485 -331 -37 -72 -75 -199 -75 -256 0 -33 0 -33 48 -33 60 0 86 -15 42 -24 -18 -3 -45 -6 -61 -6 -26 0 -29 -3 -29 -32 0 -46 26 -150 51 -209 12 -27 22 -49 23 -49 1 0 26 12 55 26 29 14 56 23 59 20 3 -3 3 -7 1 -9 -2 -2 -25 -19 -51 -37 l-48 -33 27 -36 c41 -56 84 -100 136 -138 53 -39 51 -40 94 30 10 15 21 27 25 27 11 0 11 -2 -12 -51 -11 -24 -20 -49 -20 -55 0 -20 207 -84 271 -84 5 0 11 27 15 60 4 33 10 60 14 60 4 0 10 -25 13 -56 3 -31 8 -58 10 -60 14 -14 241 46 276 72 2 2 -6 26 -18 55 -12 28 -20 53 -17 56 3 3 19 -16 37 -41 18 -25 35 -46 39 -46 16 0 131 105 167 152 l42 56 -50 33 c-27 19 -49 37 -49 42 0 11 7 9 61 -19 28 -14 53 -24 54 -22 24 24 75 197 75 256 0 29 -3 32 -29 32 -16 0 -43 3 -61 6 -44 9 -18 24 43 24 45 0 47 1 47 28 -1 52 -30 165 -58 226 -121 256 -376 397 -662 366z m83 -33 c27 17 153 -7 239 -44 43 -19 55 -29 51 -42 -5 -13 -3 -14 7 -4 15 14 53 -10 128 -81 65 -62 97 -113 83 -130 -10 -12 -9 -14 7 -10 27 8 58 -63 45 -103 -13 -37 -35 -36 -52 5 -21 46 -31 40 -16 -10 20 -68 28 -145 16 -153 -7 -4 -11 6 -11 28 0 57 -37 161 -82 227 -167 250 -526 295 -756 94 -88 -77 -162 -217 -162 -308 0 -19 -5 -38 -12 -42 -15 -10 -4 96 16 154 18 51 6 56 -17 6 -20 -40 -37 -40 -50 0 -11 33 17 106 40 106 8 0 11 4 8 10 -9 15 13 49 69 108 70 74 129 115 145 99 10 -9 11 -8 6 4 -6 17 38 43 117 68 48 16 162 28 166 19 2 -5 9 -5 15 -1z m200 -170 c144 -71 245 -208 270 -366 22 -144 -27 -294 -131 -400 -71 -72 -133 -108 -224 -132 -171 -45 -324 -2 -454 126 -153 151 -188 380 -86 569 55 103 189 208 298 235 22 6 87 9 146 7 100 -2 112 -5 181 -39z m-761 -304 c11 -9 18 -30 18 -50 0 -32 -2 -34 -27 -31 -30 3 -40 29 -29 74 7 28 13 30 38 7z m1154 -18 c8 -47 0 -65 -31 -65 -22 0 -25 4 -25 34 0 33 21 66 40 66 5 0 12 -16 16 -35z m-1105 -170 c2 -45 1 -41 24 -107 21 -64 18 -72 -32 -81 -38 -7 -47 5 -69 88 -22 82 -19 103 19 119 49 22 57 20 58 -19z m1099 10 c16 -10 11 -65 -13 -135 -22 -65 -22 -65 -57 -62 -51 5 -56 15 -37 69 9 27 19 66 22 88 10 64 11 65 44 55 17 -5 35 -11 41 -15z m-954 -310 l77 -75 -28 -30 c-16 -17 -33 -30 -38 -30 -14 0 -126 111 -132 131 -5 14 29 79 41 79 1 0 37 -34 80 -75z m854 8 c0 -7 -29 -43 -65 -79 -69 -70 -73 -71 -122 -25 l-22 21 77 74 77 75 28 -27 c15 -14 27 -32 27 -39z m-562 -153 c46 0 51 -11 31 -59 -18 -41 -20 -43 -53 -37 -58 11 -131 35 -147 48 -13 10 -14 21 -7 54 l9 42 70 -24 c39 -13 83 -24 97 -24z m316 1 c8 -29 7 -36 -12 -52 -12 -9 -54 -25 -94 -34 -80 -18 -87 -15 -106 42 -12 37 -8 43 32 44 17 0 56 9 86 19 72 24 82 22 94 -19z"/> <path d="M1405 2160 c-117 -25 -233 -93 -308 -180 -57 -67 -44 -64 27 5 221 213 560 205 769 -18 26 -28 47 -46 47 -39 0 19 -122 136 -172 166 -101 59 -261 89 -363 66z"/> <path d="M1400 2002 c-232 -61 -365 -285 -305 -516 20 -78 54 -133 120 -195 159 -151 400 -153 563 -5 179 161 188 423 21 599 -59 62 -124 99 -210 120 -80 19 -108 18 -189 -3z m222 -38 c54 -21 145 -87 129 -92 -7 -2 -22 5 -34 16 -12 11 -42 30 -67 43 -59 29 -194 38 -258 16 -56 -20 -152 -78 -152 -93 0 -15 -29 -39 -37 -30 -9 9 54 72 107 106 92 59 213 72 312 34z m-79 -50 l37 -7 1 -66 c0 -73 17 -59 18 17 1 23 3 42 6 42 9 0 99 -48 118 -63 12 -11 17 -29 17 -69 0 -30 3 -97 7 -149 9 -119 21 -86 22 61 l1 105 20 -25 c22 -28 25 -24 10 14 -18 47 7 27 29 -23 61 -143 49 -279 -37 -390 l-27 -36 -6 35 -6 35 -2 -42 c-1 -35 -7 -46 -34 -67 -29 -22 -96 -56 -112 -56 -3 0 -5 50 -5 111 0 78 -3 110 -11 107 -8 -3 -12 -42 -13 -116 l-1 -111 -41 -7 c-22 -3 -61 -2 -85 3 l-44 9 -3 127 c-3 167 -22 169 -22 2 l0 -126 -32 17 c-74 38 -98 64 -98 105 0 44 -17 53 -22 12 -3 -27 -4 -26 -36 22 -72 110 -80 241 -22 358 26 54 30 58 25 27 l-5 -35 20 25 20 25 0 -128 c0 -83 4 -126 10 -122 6 4 10 63 10 145 l0 138 54 36 c30 20 59 36 65 36 7 0 11 -45 11 -135 0 -184 19 -178 22 8 l3 142 40 6 c22 3 45 7 50 7 6 1 27 -1 48 -4z m247 -69 c7 -9 10 -18 7 -21 -10 -11 -37 5 -37 21 0 19 14 19 30 0z"/> <path d="M1579 1590 c-4 -80 -5 -85 -27 -88 -13 -2 -30 2 -38 8 -21 18 -46 -5 -38 -36 4 -15 0 -29 -10 -39 -13 -13 -15 -30 -10 -88 8 -95 7 -94 47 -89 l34 4 6 76 c4 66 2 80 -14 98 -10 11 -19 24 -19 28 0 4 43 6 95 5 53 -1 98 1 102 4 3 4 3 14 -1 23 -5 12 -17 15 -56 12 l-50 -3 -1 55 c-1 30 -5 69 -9 85 -5 22 -8 8 -11 -55z m-69 -211 c0 -17 -4 -28 -10 -24 -5 3 -10 17 -10 31 0 13 5 24 10 24 6 0 10 -14 10 -31z"/> <path d="M1490 1600 c0 -5 -7 -10 -16 -10 -13 0 -14 -3 -4 -15 6 -8 9 -19 5 -25 -4 -6 3 -9 17 -7 29 3 43 33 24 53 -17 16 -26 18 -26 4z"/> <path d="M1110 1377 c0 -16 44 -76 90 -122 159 -163 424 -166 593 -6 28 27 61 64 71 83 13 22 -1 12 -43 -34 -195 -211 -511 -189 -683 46 -15 21 -28 36 -28 33z"/> <path d="M973 2214 c-11 -29 18 -45 60 -33 45 12 47 24 6 38 -43 15 -59 14 -66 -5z"/> <path d="M1953 2218 c-32 -15 -29 -26 10 -36 35 -10 67 1 67 22 0 25 -39 32 -77 14z"/> <path d="M795 2156 c-17 -41 -11 -66 16 -66 25 0 33 21 25 65 -9 44 -23 45 -41 1z"/> <path d="M2164 2166 c-10 -41 -1 -71 21 -71 25 0 31 27 15 66 -15 35 -28 37 -36 5z"/> <path d="M910 2155 c-11 -14 -11 -18 3 -32 15 -16 19 -16 53 1 41 19 37 32 -12 42 -21 4 -34 1 -44 -11z"/> <path d="M2023 2160 c-33 -13 -28 -27 13 -40 30 -10 39 -10 52 3 13 13 13 19 2 31 -14 18 -34 19 -67 6z"/> <path d="M734 2073 c-7 -39 4 -68 27 -68 18 0 24 57 9 85 -16 30 -28 24 -36 -17z"/> <path d="M2224 2079 c-12 -25 -14 -37 -5 -55 21 -46 57 -15 47 41 -9 47 -22 52 -42 14z"/> <path d="M850 2085 c-27 -33 35 -49 75 -19 17 13 18 16 5 24 -23 14 -66 12 -80 -5z"/> <path d="M2070 2090 c-13 -8 -12 -11 5 -24 23 -18 71 -21 80 -6 18 29 -49 53 -85 30z"/> <path d="M805 2016 c-22 -16 -14 -46 13 -46 11 0 32 10 46 21 21 17 25 24 14 30 -20 13 -52 11 -73 -5z"/> <path d="M2122 2022 c-11 -7 -7 -14 14 -31 40 -32 89 -20 66 16 -10 17 -63 26 -80 15z"/> <path d="M684 1995 c-10 -39 3 -75 27 -75 28 0 34 26 16 66 -20 40 -34 43 -43 9z"/> <path d="M2276 1995 c-19 -29 -21 -59 -3 -73 26 -22 50 19 40 68 -7 36 -16 38 -37 5z"/> <path d="M765 1936 c-22 -16 -14 -46 13 -46 17 0 62 38 62 53 0 12 -56 7 -75 -7z"/> <path d="M2160 1930 c20 -38 76 -53 87 -24 9 23 -23 44 -64 44 -30 0 -33 -2 -23 -20z"/> <path d="M645 1908 c-9 -36 1 -74 21 -82 40 -15 47 38 10 81 l-24 28 -7 -27z"/> <path d="M2318 1908 c-24 -38 -27 -55 -13 -74 21 -29 45 -1 45 52 0 49 -10 56 -32 22z"/> <path d="M738 1859 c-21 -12 -24 -45 -4 -52 17 -7 52 17 66 44 9 17 7 19 -17 19 -15 0 -36 -5 -45 -11z"/> <path d="M2190 1861 c0 -17 60 -60 75 -55 22 9 18 31 -7 48 -24 17 -68 22 -68 7z"/> <path d="M615 1819 c-3 -9 -2 -32 3 -50 6 -27 13 -34 32 -34 36 0 36 28 1 67 -24 27 -31 30 -36 17z"/> <path d="M2341 1801 c-25 -34 -27 -59 -6 -67 25 -10 45 16 45 57 0 46 -11 49 -39 10z"/> <path d="M735 1780 c-46 -18 -56 -60 -15 -60 18 0 60 43 60 61 0 11 -18 11 -45 -1z"/> <path d="M2220 1778 c1 -42 80 -81 80 -39 0 22 -16 36 -52 45 -20 4 -28 2 -28 -6z"/> <path d="M599 1724 c-6 -49 14 -94 41 -94 31 0 25 42 -10 75 -16 16 -30 25 -31 19z"/> <path d="M2363 1703 c-36 -34 -42 -60 -17 -70 26 -10 56 29 52 68 l-3 34 -32 -32z"/> <path d="M723 1694 c-48 -24 -56 -64 -13 -64 22 0 53 42 48 64 -3 13 -7 13 -35 0z"/> <path d="M2247 1668 c24 -42 63 -51 63 -15 0 24 -33 47 -66 47 -14 0 -13 -5 3 -32z"/> <path d="M590 1602 c0 -38 31 -78 54 -69 26 10 16 46 -21 75 l-33 25 0 -31z"/> <path d="M2367 1598 c-39 -38 -42 -68 -6 -68 22 0 52 52 47 83 -3 21 -6 20 -41 -15z"/> <path d="M713 1600 c-35 -21 -44 -54 -18 -64 15 -6 55 26 55 43 0 5 3 16 6 25 8 21 -4 20 -43 -4z"/> <path d="M2244 1593 c4 -16 16 -36 28 -46 18 -15 23 -16 35 -4 18 18 9 39 -26 60 -39 23 -44 22 -37 -10z"/> <path d="M712 1507 c-34 -36 -26 -76 11 -61 14 5 37 53 37 75 0 17 -27 9 -48 -14z"/> <path d="M2240 1505 c0 -24 31 -65 49 -65 15 0 22 30 11 50 -9 18 -40 40 -54 40 -3 0 -6 -11 -6 -25z"/> <path d="M590 1508 c0 -7 9 -28 20 -46 23 -38 53 -40 58 -5 2 16 -6 28 -30 43 -38 23 -48 25 -48 8z"/> <path d="M2358 1499 c-43 -32 -33 -83 11 -60 15 8 41 57 41 77 0 10 -28 1 -52 -17z"/> <path d="M738 1430 c-29 -22 -38 -63 -17 -76 20 -12 51 30 47 66 l-3 32 -27 -22z"/> <path d="M2230 1416 c0 -51 42 -88 55 -47 8 25 -2 47 -31 66 -24 15 -24 15 -24 -19z"/> <path d="M600 1415 c0 -16 32 -65 48 -73 41 -22 60 26 20 52 -28 17 -68 30 -68 21z"/> <path d="M2348 1404 c-37 -20 -52 -48 -34 -64 18 -14 50 4 65 37 21 46 14 52 -31 27z"/> <path d="M756 1338 c-23 -32 -21 -68 3 -68 21 0 44 50 35 75 -8 21 -20 19 -38 -7z"/> <path d="M2200 1332 c0 -37 22 -67 44 -59 22 9 20 39 -4 65 -28 30 -40 28 -40 -6z"/> <path d="M630 1308 c0 -21 50 -69 68 -66 27 5 26 42 0 55 -42 21 -68 25 -68 11z"/> <path d="M2325 1309 c-35 -10 -56 -35 -48 -55 9 -23 40 -16 67 17 40 47 36 55 -19 38z"/> <path d="M791 1254 c-25 -32 -26 -47 -6 -64 22 -18 45 5 45 46 0 44 -14 50 -39 18z"/> <path d="M2170 1242 c0 -41 15 -63 36 -55 19 7 18 43 -2 71 -22 32 -34 27 -34 -16z"/> <path d="M670 1211 c0 -19 47 -61 68 -61 25 0 34 23 19 44 -15 20 -87 34 -87 17z"/> <path d="M2260 1207 c-31 -16 -34 -51 -4 -55 20 -3 74 41 74 59 0 13 -41 11 -70 -4z"/> <path d="M834 1177 c-19 -41 -13 -67 16 -67 20 0 25 13 21 60 -4 42 -19 45 -37 7z"/> <path d="M2126 1176 c-8 -42 1 -66 24 -66 26 0 32 27 14 66 -20 43 -30 43 -38 0z"/> <path d="M891 1121 c-16 -28 -13 -78 3 -84 24 -9 39 19 32 58 -8 42 -22 52 -35 26z"/> <path d="M2081 1122 c-23 -44 -4 -105 26 -81 17 14 16 47 -1 78 -13 24 -14 24 -25 3z"/> <path d="M720 1120 c0 -19 40 -50 64 -50 33 0 42 17 20 41 -18 20 -84 27 -84 9z"/> <path d="M2195 1116 c-24 -17 -13 -46 18 -46 21 0 67 36 67 53 0 13 -66 7 -85 -7z"/> <path d="M944 1034 c-7 -38 13 -73 35 -60 22 14 6 96 -19 96 -5 0 -12 -16 -16 -36z"/> <path d="M2015 1040 c-26 -50 2 -95 35 -55 12 15 6 70 -10 80 -5 3 -16 -8 -25 -25z"/> <path d="M786 1041 c-17 -7 -17 -9 9 -29 33 -26 73 -29 82 -6 12 32 -44 54 -91 35z"/> <path d="M2135 1036 c-24 -17 -13 -46 17 -46 13 0 34 9 48 20 21 17 23 21 10 30 -21 14 -53 12 -75 -4z"/> <path d="M1017 1003 c-24 -24 6 -105 33 -88 14 9 12 57 -4 78 -14 19 -19 20 -29 10z"/> <path d="M1943 975 c-16 -33 -16 -36 1 -53 16 -16 18 -16 32 2 15 21 18 45 8 70 -10 25 -23 19 -41 -19z"/> <path d="M885 973 c-49 -11 -51 -13 -25 -33 31 -24 78 -26 87 -4 6 15 -21 46 -36 43 -3 -1 -15 -3 -26 -6z"/> <path d="M2065 966 c-23 -17 -13 -46 15 -46 29 0 84 30 74 40 -18 15 -72 19 -89 6z"/> <path d="M1084 935 c-8 -31 19 -77 41 -69 21 8 18 44 -4 72 -24 28 -29 28 -37 -3z"/> <path d="M1876 935 c-24 -37 -21 -67 7 -63 18 2 23 10 25 46 4 47 -8 54 -32 17z"/> <path d="M1160 894 c0 -36 17 -64 40 -64 28 0 26 41 -3 68 -30 28 -37 28 -37 -4z"/> <path d="M1795 889 c-28 -34 -28 -52 -1 -57 24 -5 33 6 41 51 9 46 -4 48 -40 6z"/> <path d="M943 900 c-31 -13 -29 -19 12 -36 34 -14 75 -6 75 14 0 28 -44 39 -87 22z"/> <path d="M1973 894 c-10 -26 22 -44 60 -33 47 13 55 27 23 39 -40 15 -76 12 -83 -6z"/> <path d="M1240 871 c0 -38 19 -71 40 -71 44 0 29 54 -22 81 -14 8 -18 6 -18 -10z"/> <path d="M1716 865 c-31 -28 -35 -65 -7 -65 24 0 37 17 46 58 8 38 -3 41 -39 7z"/> <path d="M1031 844 c-40 -17 -33 -32 20 -40 44 -6 68 9 53 33 -15 24 -32 26 -73 7z"/> <path d="M1320 855 c0 -3 7 -22 15 -41 11 -28 19 -35 37 -32 31 4 33 24 4 53 -22 22 -56 34 -56 20z"/> <path d="M1626 839 c-31 -24 -35 -59 -7 -59 22 0 51 35 51 62 0 23 -11 23 -44 -3z"/> <path d="M1902 851 c-8 -4 -12 -17 -10 -27 4 -23 42 -29 83 -14 28 10 28 11 8 25 -27 19 -65 27 -81 16z"/> <path d="M1410 840 c0 -6 7 -25 16 -41 11 -22 21 -29 37 -27 35 5 33 35 -5 58 -37 23 -48 25 -48 10z"/> <path d="M1560 843 c-45 -17 -69 -73 -32 -73 22 0 47 25 56 58 7 22 3 25 -24 15z"/> <path d="M1116 794 c-35 -19 -24 -34 28 -36 41 -1 62 13 53 36 -8 20 -43 20 -81 0z"/> <path d="M1803 794 c-9 -23 12 -37 52 -36 53 2 61 12 28 33 -34 23 -72 24 -80 3z"/> <path d="M1216 759 c-35 -27 -33 -39 7 -39 41 0 73 21 64 44 -9 22 -39 20 -71 -5z"/> <path d="M1707 766 c-8 -21 25 -46 61 -46 43 0 48 15 13 39 -34 24 -66 27 -74 7z"/> <path d="M1313 735 c-33 -29 -21 -44 27 -37 34 5 55 25 46 47 -8 23 -41 18 -73 -10z"/> <path d="M1613 744 c-11 -29 29 -50 86 -45 22 2 -38 61 -61 61 -10 0 -21 -7 -25 -16z"/> <path d="M1415 720 c-34 -35 -29 -45 19 -36 39 7 61 29 52 51 -9 24 -40 18 -71 -15z"/> <path d="M1514 735 c-4 -8 -1 -22 6 -30 12 -15 77 -32 86 -22 3 2 -7 19 -21 36 -29 33 -62 41 -71 16z"/> </g> </svg> 